<?xml version="1.0" encoding="UTF-8" standalone="no"?>
<svg viewBox="0 0 330 125" xmlns="http://www.w3.org/2000/svg">
  <g fill="#FFFFFF">
    <path d="M41.5,25c-13.7,0-25,11.3-25,25c0,13.7,11.3,25,25,25c5.9,0,11.4-2.1,15.7-5.6l-2.8-4.2c-3.5,3-8.1,4.8-13,4.8
           c-10.9,0-19.8-8.9-19.8-19.8C21.5,38.9,30.4,30,41.3,30c6.7,0,12.6,3.4,16.2,8.5l4.2-2.8C57.5,29.5,50,25,41.5,25z" />
    <path d="M83.8,43.5H73.2c-0.8,0-1.5,0.7-1.5,1.5v28.3c0,0.8,0.7,1.5,1.5,1.5h10.6c8.4,0,15.3-7,15.3-15.6
           C99.1,50.5,92.2,43.5,83.8,43.5z M83.8,69.8h-7V48.5h7c6,0,10.3,4.8,10.3,10.6C94.1,65,89.8,69.8,83.8,69.8z" />
    <path d="M56.7,69.8H49V48.6h7.7c0.8,0,1.5-0.7,1.5-1.5c0-0.8-0.7-1.5-1.5-1.5H49v-9.3c0-0.8-0.7-1.5-1.5-1.5
           c-0.8,0-1.5,0.7-1.5,1.5v9.3h-3.5c-0.8,0-1.5,0.7-1.5,1.5c0,0.8,0.7,1.5,1.5,1.5h3.5v23.2c0,0.8,0.7,1.5,1.5,1.5h9.2
           c0.8,0,1.5-0.7,1.5-1.5C58.2,70.5,57.5,69.8,56.7,69.8z" />
    <path d="M112.4,43.5c-9,0-15.8,7.1-15.8,16v0.1c0,8.9,6.8,15.9,15.8,15.9c9,0,15.8-7.1,15.8-16v-0.1
           C128.2,50.5,121.4,43.5,112.4,43.5z M123.2,59.5L123.2,59.5c0,6.4-4.5,11.1-10.8,11.1c-6.3,0-10.7-4.6-10.7-11v-0.1
           c0-6.4,4.5-11.1,10.8-11.1C118.7,48.4,123.2,53.1,123.2,59.5z" />
    <path d="M135.1,59.1L135.1,59.1c0,9.1,6.5,16.4,15.8,16.4c5.5,0,9.1-2.1,12.2-5.4c0.2-0.2,0.7-0.8,0.7-1.7
           c0-0.9-0.7-1.6-1.6-1.6c-0.5,0-0.9,0.2-1.2,0.5c-2.5,2.5-5.4,4.2-10.1,4.2c-6.4,0-10.7-5.3-10.8-11.5h22.9
           c0.9,0,1.6-0.7,1.6-1.6c0-9-5.5-16-14.7-16C141.7,42.4,135.1,49.8,135.1,59.1z M147.9,46.4c6.3,0,9.7,4.9,10.2,10.2
           h-20.7C138,51.2,141.6,46.4,147.9,46.4z" />
  </g>
  <g fill="#FFFFFF">
    <path d="M167.8,59.1L167.8,59.1c0-8.8,6.3-16.3,15.3-16.3c8.4,0,14.5,6.8,14.5,16.2c0,0.3,0,0.3,0,0.6
           c0,0.7-0.6,1.3-1.3,1.3h-23.7c0.6,7.1,5.7,11.4,11.8,11.4c4.1,0,6.9-1.5,9.4-3.6c0.3-0.2,0.5-0.4,0.9-0.4
           c0.7,0,1.3,0.6,1.3,1.3c0,0.4-0.2,0.7-0.4,0.9c-3,2.7-6.5,4.4-11.3,4.4C175,75.1,167.8,68.8,167.8,59.1z
           M192.8,57.3c-0.4-6.4-4.1-11.5-9.8-11.5c-5.5,0-9.8,4.9-10.3,11.5H192.8z" />
    <path d="M239.1,53.4v20.3c0,0.8-0.6,1.4-1.4,1.4c-0.8,0-1.4-0.6-1.4-1.4V54.4c0-6.4-3.1-10.3-8.5-10.3
           c-5.2,0-9.1,4.1-9.1,10.5v19.1c0,0.8-0.6,1.4-1.4,1.4c-0.8,0-1.4-0.6-1.4-1.4V54.4c0-6.4-3.1-10.3-8.5-10.3
           c-5.3,0-9.1,4.2-9.1,10.7v18.9c0,0.8-0.6,1.4-1.4,1.4c-0.8,0-1.4-0.6-1.4-1.4V44.1c0-0.8,0.6-1.4,1.4-1.4
           c0.8,0,1.4,0.6,1.4,1.4v3.9c1.9-3.1,5.1-5.6,9.9-5.6c5.4,0,9.2,2.7,10.7,7c2-4,5.5-7,10.8-7C233.9,42.5,239.1,46.3,239.1,53.4z" />
    <path d="M244.5,59.1L244.5,59.1c0-8.8,6.7-16.6,16.3-16.6c9.6,0,16.3,7.6,16.3,16.4v0.1c0,8.8-6.7,16.6-16.3,16.6
           C251.1,75.6,244.5,67.9,244.5,59.1z M274.3,59.1L274.3,59.1c0-7.8-5.7-14-13.6-14c-7.9,0-13.5,6.1-13.5,13.9v0.1
           c0,7.8,5.7,14,13.6,14C268.6,73.1,274.3,66.9,274.3,59.1z" />
    <path d="M280.3,59.1L280.3,59.1c0-8.8,6.7-16.6,16.3-16.6c9.6,0,16.3,7.6,16.3,16.4v0.1c0,8.8-6.7,16.6-16.3,16.6
           C287,75.6,280.3,67.9,280.3,59.1z M310.2,59.1L310.2,59.1c0-7.8-5.7-14-13.6-14c-7.9,0-13.5,6.1-13.5,13.9v0.1
           c0,7.8,5.7,14,13.6,14C304.5,73.1,310.2,66.9,310.2,59.1z" />
  </g>
  <g fill="#FFFFFF">
    <path d="M65,104.4l-2.2-5.6H51.1l-2.2,5.6h-3.2l9.3-23.7h4l9.3,23.7H65z M56.9,85.4l-5,10.7h10L56.9,85.4z" />
    <path d="M84.8,104.4l-4.4-6.3h-0.1h-5.6v6.3h-3.1V80.6h8.7c5.6,0,9,2.9,9,8.4c0,4.3-2.3,7-5.7,8.1l5,7.2H84.8z
           M84.6,89.2c0-3.5-2.4-5.5-6-5.5h-5.2v11h5.2C82.3,94.6,84.6,92.7,84.6,89.2z" />
    <path d="M95.7,104.4V80.6h17.9v2.9h-14.8v7.5h13.2v2.9H98.8v7.4h15v2.9H95.7z" />
  </g>
  <g fill="#FFFFFF">
    <path d="M127.7,104.4V80.6h3.1v23.7H127.7z" />
    <path d="M153.8,104.4l-13.2-18.3v18.3h-3.1V80.6h2.9l12.8,17.8V80.6h3.1v23.7H153.8z" />
    <path d="M171.4,104.4l-9.3-23.7h3.3l7.7,20.2l7.7-20.2h3.2l-9.3,23.7H171.4z" />
    <path d="M189.1,104.4V80.6h17.9v2.9h-14.8v7.5h13.2v2.9h-13.2v7.4h15v2.9H189.1z" />
    <path d="M221.9,104.4l-4.4-6.3h-0.1h-5.6v6.3h-3.1V80.6h8.7c5.6,0,9,2.9,9,8.4c0,4.3-2.3,7-5.7,8.1l5,7.2H221.9
           z M221.7,89.2c0-3.5-2.4-5.5-6-5.5h-5.2v11h5.2C219.3,94.6,221.7,92.7,221.7,89.2z" />
    <path d="M247.8,104.4l-4.4-6.3h-0.1h-5.6v6.3h-3.1V80.6h8.7c5.6,0,9,2.9,9,8.4c0,4.3-2.3,7-5.7,8.1l5,7.2H247.8
           z M247.6,89.2c0-3.5-2.4-5.5-6-5.5h-5.2v11h5.2C245.3,94.6,247.6,92.7,247.6,89.2z" />
    <path d="M257.5,104.4V80.6h17.9v2.9h-14.8v7.5h13.2v2.9h-13.2v7.4h15v2.9H257.5z" />
  </g>
</svg>